<svg xmlns="http://www.w3.org/2000/svg" viewBox="0 0 640 640" width="640" height="640">
  <!-- 像素风头像 - 64x64网格，精确还原 -->
  <rect x="140" y="120" width="10" height="10" fill="#000000"/>
  <rect x="150" y="120" width="10" height="10" fill="#000000"/>
  <rect x="160" y="120" width="10" height="10" fill="#000000"/>
  <rect x="170" y="120" width="10" height="10" fill="#000000"/>
  <rect x="180" y="120" width="10" height="10" fill="#000000"/>
  <rect x="190" y="120" width="10" height="10" fill="#000000"/>
  <rect x="200" y="120" width="10" height="10" fill="#000000"/>
  <rect x="210" y="120" width="10" height="10" fill="#000000"/>
  <rect x="220" y="120" width="10" height="10" fill="#000000"/>
  <rect x="230" y="120" width="10" height="10" fill="#000000"/>
  <rect x="400" y="120" width="10" height="10" fill="#000000"/>
  <rect x="410" y="120" width="10" height="10" fill="#000000"/>
  <rect x="420" y="120" width="10" height="10" fill="#000000"/>
  <rect x="430" y="120" width="10" height="10" fill="#000000"/>
  <rect x="440" y="120" width="10" height="10" fill="#000000"/>
  <rect x="450" y="120" width="10" height="10" fill="#000000"/>
  <rect x="460" y="120" width="10" height="10" fill="#000000"/>
  <rect x="470" y="120" width="10" height="10" fill="#000000"/>
  <rect x="480" y="120" width="10" height="10" fill="#000000"/>
  <rect x="490" y="120" width="10" height="10" fill="#000000"/>
  <rect x="140" y="130" width="10" height="10" fill="#000000"/>
  <rect x="150" y="130" width="10" height="10" fill="#000000"/>
  <rect x="160" y="130" width="10" height="10" fill="#000000"/>
  <rect x="170" y="130" width="10" height="10" fill="#000000"/>
  <rect x="180" y="130" width="10" height="10" fill="#000000"/>
  <rect x="190" y="130" width="10" height="10" fill="#000000"/>
  <rect x="200" y="130" width="10" height="10" fill="#000000"/>
  <rect x="210" y="130" width="10" height="10" fill="#000000"/>
  <rect x="220" y="130" width="10" height="10" fill="#000000"/>
  <rect x="230" y="130" width="10" height="10" fill="#000000"/>
  <rect x="400" y="130" width="10" height="10" fill="#000000"/>
  <rect x="410" y="130" width="10" height="10" fill="#000000"/>
  <rect x="420" y="130" width="10" height="10" fill="#000000"/>
  <rect x="430" y="130" width="10" height="10" fill="#000000"/>
  <rect x="440" y="130" width="10" height="10" fill="#000000"/>
  <rect x="450" y="130" width="10" height="10" fill="#000000"/>
  <rect x="460" y="130" width="10" height="10" fill="#000000"/>
  <rect x="470" y="130" width="10" height="10" fill="#000000"/>
  <rect x="480" y="130" width="10" height="10" fill="#000000"/>
  <rect x="490" y="130" width="10" height="10" fill="#000000"/>
  <rect x="120" y="140" width="10" height="10" fill="#000000"/>
  <rect x="130" y="140" width="10" height="10" fill="#000000"/>
  <rect x="240" y="140" width="10" height="10" fill="#000000"/>
  <rect x="250" y="140" width="10" height="10" fill="#000000"/>
  <rect x="380" y="140" width="10" height="10" fill="#000000"/>
  <rect x="390" y="140" width="10" height="10" fill="#000000"/>
  <rect x="500" y="140" width="10" height="10" fill="#000000"/>
  <rect x="510" y="140" width="10" height="10" fill="#000000"/>
  <rect x="120" y="150" width="10" height="10" fill="#000000"/>
  <rect x="130" y="150" width="10" height="10" fill="#000000"/>
  <rect x="240" y="150" width="10" height="10" fill="#000000"/>
  <rect x="250" y="150" width="10" height="10" fill="#000000"/>
  <rect x="380" y="150" width="10" height="10" fill="#000000"/>
  <rect x="390" y="150" width="10" height="10" fill="#000000"/>
  <rect x="500" y="150" width="10" height="10" fill="#000000"/>
  <rect x="510" y="150" width="10" height="10" fill="#000000"/>
  <rect x="100" y="160" width="10" height="10" fill="#000000"/>
  <rect x="110" y="160" width="10" height="10" fill="#000000"/>
  <rect x="260" y="160" width="10" height="10" fill="#000000"/>
  <rect x="270" y="160" width="10" height="10" fill="#000000"/>
  <rect x="360" y="160" width="10" height="10" fill="#000000"/>
  <rect x="370" y="160" width="10" height="10" fill="#000000"/>
  <rect x="520" y="160" width="10" height="10" fill="#000000"/>
  <rect x="530" y="160" width="10" height="10" fill="#000000"/>
  <rect x="100" y="170" width="10" height="10" fill="#000000"/>
  <rect x="110" y="170" width="10" height="10" fill="#000000"/>
  <rect x="260" y="170" width="10" height="10" fill="#000000"/>
  <rect x="270" y="170" width="10" height="10" fill="#000000"/>
  <rect x="360" y="170" width="10" height="10" fill="#000000"/>
  <rect x="370" y="170" width="10" height="10" fill="#000000"/>
  <rect x="520" y="170" width="10" height="10" fill="#000000"/>
  <rect x="530" y="170" width="10" height="10" fill="#000000"/>
  <rect x="80" y="180" width="10" height="10" fill="#000000"/>
  <rect x="90" y="180" width="10" height="10" fill="#000000"/>
  <rect x="280" y="180" width="10" height="10" fill="#000000"/>
  <rect x="290" y="180" width="10" height="10" fill="#000000"/>
  <rect x="340" y="180" width="10" height="10" fill="#000000"/>
  <rect x="350" y="180" width="10" height="10" fill="#000000"/>
  <rect x="540" y="180" width="10" height="10" fill="#000000"/>
  <rect x="550" y="180" width="10" height="10" fill="#000000"/>
  <rect x="80" y="190" width="10" height="10" fill="#000000"/>
  <rect x="90" y="190" width="10" height="10" fill="#000000"/>
  <rect x="280" y="190" width="10" height="10" fill="#000000"/>
  <rect x="290" y="190" width="10" height="10" fill="#000000"/>
  <rect x="340" y="190" width="10" height="10" fill="#000000"/>
  <rect x="350" y="190" width="10" height="10" fill="#000000"/>
  <rect x="540" y="190" width="10" height="10" fill="#000000"/>
  <rect x="550" y="190" width="10" height="10" fill="#000000"/>
  <rect x="80" y="200" width="10" height="10" fill="#000000"/>
  <rect x="90" y="200" width="10" height="10" fill="#000000"/>
  <rect x="260" y="200" width="10" height="10" fill="#000000"/>
  <rect x="270" y="200" width="10" height="10" fill="#000000"/>
  <rect x="280" y="200" width="10" height="10" fill="#000000"/>
  <rect x="290" y="200" width="10" height="10" fill="#000000"/>
  <rect x="300" y="200" width="10" height="10" fill="#000000"/>
  <rect x="310" y="200" width="10" height="10" fill="#000000"/>
  <rect x="320" y="200" width="10" height="10" fill="#000000"/>
  <rect x="330" y="200" width="10" height="10" fill="#000000"/>
  <rect x="340" y="200" width="10" height="10" fill="#000000"/>
  <rect x="350" y="200" width="10" height="10" fill="#000000"/>
  <rect x="360" y="200" width="10" height="10" fill="#000000"/>
  <rect x="370" y="200" width="10" height="10" fill="#000000"/>
  <rect x="540" y="200" width="10" height="10" fill="#000000"/>
  <rect x="550" y="200" width="10" height="10" fill="#000000"/>
  <rect x="80" y="210" width="10" height="10" fill="#000000"/>
  <rect x="90" y="210" width="10" height="10" fill="#000000"/>
  <rect x="260" y="210" width="10" height="10" fill="#000000"/>
  <rect x="270" y="210" width="10" height="10" fill="#000000"/>
  <rect x="280" y="210" width="10" height="10" fill="#000000"/>
  <rect x="290" y="210" width="10" height="10" fill="#000000"/>
  <rect x="300" y="210" width="10" height="10" fill="#000000"/>
  <rect x="310" y="210" width="10" height="10" fill="#000000"/>
  <rect x="320" y="210" width="10" height="10" fill="#000000"/>
  <rect x="330" y="210" width="10" height="10" fill="#000000"/>
  <rect x="340" y="210" width="10" height="10" fill="#000000"/>
  <rect x="350" y="210" width="10" height="10" fill="#000000"/>
  <rect x="360" y="210" width="10" height="10" fill="#000000"/>
  <rect x="370" y="210" width="10" height="10" fill="#000000"/>
  <rect x="540" y="210" width="10" height="10" fill="#000000"/>
  <rect x="550" y="210" width="10" height="10" fill="#000000"/>
  <rect x="80" y="220" width="10" height="10" fill="#000000"/>
  <rect x="90" y="220" width="10" height="10" fill="#000000"/>
  <rect x="220" y="220" width="10" height="10" fill="#000000"/>
  <rect x="230" y="220" width="10" height="10" fill="#000000"/>
  <rect x="240" y="220" width="10" height="10" fill="#000000"/>
  <rect x="250" y="220" width="10" height="10" fill="#000000"/>
  <rect x="280" y="220" width="10" height="10" fill="#000000"/>
  <rect x="290" y="220" width="10" height="10" fill="#000000"/>
  <rect x="340" y="220" width="10" height="10" fill="#000000"/>
  <rect x="350" y="220" width="10" height="10" fill="#000000"/>
  <rect x="380" y="220" width="10" height="10" fill="#000000"/>
  <rect x="390" y="220" width="10" height="10" fill="#000000"/>
  <rect x="400" y="220" width="10" height="10" fill="#000000"/>
  <rect x="410" y="220" width="10" height="10" fill="#000000"/>
  <rect x="540" y="220" width="10" height="10" fill="#000000"/>
  <rect x="550" y="220" width="10" height="10" fill="#000000"/>
  <rect x="80" y="230" width="10" height="10" fill="#000000"/>
  <rect x="90" y="230" width="10" height="10" fill="#000000"/>
  <rect x="220" y="230" width="10" height="10" fill="#000000"/>
  <rect x="230" y="230" width="10" height="10" fill="#000000"/>
  <rect x="240" y="230" width="10" height="10" fill="#000000"/>
  <rect x="250" y="230" width="10" height="10" fill="#000000"/>
  <rect x="280" y="230" width="10" height="10" fill="#000000"/>
  <rect x="290" y="230" width="10" height="10" fill="#000000"/>
  <rect x="340" y="230" width="10" height="10" fill="#000000"/>
  <rect x="350" y="230" width="10" height="10" fill="#000000"/>
  <rect x="380" y="230" width="10" height="10" fill="#000000"/>
  <rect x="390" y="230" width="10" height="10" fill="#000000"/>
  <rect x="400" y="230" width="10" height="10" fill="#000000"/>
  <rect x="410" y="230" width="10" height="10" fill="#000000"/>
  <rect x="540" y="230" width="10" height="10" fill="#000000"/>
  <rect x="550" y="230" width="10" height="10" fill="#000000"/>
  <rect x="80" y="240" width="10" height="10" fill="#000000"/>
  <rect x="90" y="240" width="10" height="10" fill="#000000"/>
  <rect x="200" y="240" width="10" height="10" fill="#000000"/>
  <rect x="210" y="240" width="10" height="10" fill="#000000"/>
  <rect x="280" y="240" width="10" height="10" fill="#000000"/>
  <rect x="290" y="240" width="10" height="10" fill="#000000"/>
  <rect x="340" y="240" width="10" height="10" fill="#000000"/>
  <rect x="350" y="240" width="10" height="10" fill="#000000"/>
  <rect x="420" y="240" width="10" height="10" fill="#000000"/>
  <rect x="430" y="240" width="10" height="10" fill="#000000"/>
  <rect x="540" y="240" width="10" height="10" fill="#000000"/>
  <rect x="550" y="240" width="10" height="10" fill="#000000"/>
  <rect x="80" y="250" width="10" height="10" fill="#000000"/>
  <rect x="90" y="250" width="10" height="10" fill="#000000"/>
  <rect x="200" y="250" width="10" height="10" fill="#000000"/>
  <rect x="210" y="250" width="10" height="10" fill="#000000"/>
  <rect x="280" y="250" width="10" height="10" fill="#000000"/>
  <rect x="290" y="250" width="10" height="10" fill="#000000"/>
  <rect x="340" y="250" width="10" height="10" fill="#000000"/>
  <rect x="350" y="250" width="10" height="10" fill="#000000"/>
  <rect x="420" y="250" width="10" height="10" fill="#000000"/>
  <rect x="430" y="250" width="10" height="10" fill="#000000"/>
  <rect x="540" y="250" width="10" height="10" fill="#000000"/>
  <rect x="550" y="250" width="10" height="10" fill="#000000"/>
  <rect x="80" y="260" width="10" height="10" fill="#000000"/>
  <rect x="90" y="260" width="10" height="10" fill="#000000"/>
  <rect x="180" y="260" width="10" height="10" fill="#000000"/>
  <rect x="190" y="260" width="10" height="10" fill="#000000"/>
  <rect x="280" y="260" width="10" height="10" fill="#000000"/>
  <rect x="290" y="260" width="10" height="10" fill="#000000"/>
  <rect x="340" y="260" width="10" height="10" fill="#000000"/>
  <rect x="350" y="260" width="10" height="10" fill="#000000"/>
  <rect x="440" y="260" width="10" height="10" fill="#000000"/>
  <rect x="450" y="260" width="10" height="10" fill="#000000"/>
  <rect x="540" y="260" width="10" height="10" fill="#000000"/>
  <rect x="550" y="260" width="10" height="10" fill="#000000"/>
  <rect x="80" y="270" width="10" height="10" fill="#000000"/>
  <rect x="90" y="270" width="10" height="10" fill="#000000"/>
  <rect x="180" y="270" width="10" height="10" fill="#000000"/>
  <rect x="190" y="270" width="10" height="10" fill="#000000"/>
  <rect x="280" y="270" width="10" height="10" fill="#000000"/>
  <rect x="290" y="270" width="10" height="10" fill="#000000"/>
  <rect x="340" y="270" width="10" height="10" fill="#000000"/>
  <rect x="350" y="270" width="10" height="10" fill="#000000"/>
  <rect x="440" y="270" width="10" height="10" fill="#000000"/>
  <rect x="450" y="270" width="10" height="10" fill="#000000"/>
  <rect x="540" y="270" width="10" height="10" fill="#000000"/>
  <rect x="550" y="270" width="10" height="10" fill="#000000"/>
  <rect x="100" y="280" width="10" height="10" fill="#000000"/>
  <rect x="110" y="280" width="10" height="10" fill="#000000"/>
  <rect x="160" y="280" width="10" height="10" fill="#000000"/>
  <rect x="170" y="280" width="10" height="10" fill="#000000"/>
  <rect x="260" y="280" width="10" height="10" fill="#000000"/>
  <rect x="270" y="280" width="10" height="10" fill="#000000"/>
  <rect x="360" y="280" width="10" height="10" fill="#000000"/>
  <rect x="370" y="280" width="10" height="10" fill="#000000"/>
  <rect x="460" y="280" width="10" height="10" fill="#000000"/>
  <rect x="470" y="280" width="10" height="10" fill="#000000"/>
  <rect x="520" y="280" width="10" height="10" fill="#000000"/>
  <rect x="530" y="280" width="10" height="10" fill="#000000"/>
  <rect x="100" y="290" width="10" height="10" fill="#000000"/>
  <rect x="110" y="290" width="10" height="10" fill="#000000"/>
  <rect x="160" y="290" width="10" height="10" fill="#000000"/>
  <rect x="170" y="290" width="10" height="10" fill="#000000"/>
  <rect x="260" y="290" width="10" height="10" fill="#000000"/>
  <rect x="270" y="290" width="10" height="10" fill="#000000"/>
  <rect x="360" y="290" width="10" height="10" fill="#000000"/>
  <rect x="370" y="290" width="10" height="10" fill="#000000"/>
  <rect x="460" y="290" width="10" height="10" fill="#000000"/>
  <rect x="470" y="290" width="10" height="10" fill="#000000"/>
  <rect x="520" y="290" width="10" height="10" fill="#000000"/>
  <rect x="530" y="290" width="10" height="10" fill="#000000"/>
  <rect x="120" y="300" width="10" height="10" fill="#000000"/>
  <rect x="130" y="300" width="10" height="10" fill="#000000"/>
  <rect x="160" y="300" width="10" height="10" fill="#000000"/>
  <rect x="170" y="300" width="10" height="10" fill="#000000"/>
  <rect x="240" y="300" width="10" height="10" fill="#000000"/>
  <rect x="250" y="300" width="10" height="10" fill="#000000"/>
  <rect x="380" y="300" width="10" height="10" fill="#000000"/>
  <rect x="390" y="300" width="10" height="10" fill="#000000"/>
  <rect x="460" y="300" width="10" height="10" fill="#000000"/>
  <rect x="470" y="300" width="10" height="10" fill="#000000"/>
  <rect x="500" y="300" width="10" height="10" fill="#000000"/>
  <rect x="510" y="300" width="10" height="10" fill="#000000"/>
  <rect x="120" y="310" width="10" height="10" fill="#000000"/>
  <rect x="130" y="310" width="10" height="10" fill="#000000"/>
  <rect x="160" y="310" width="10" height="10" fill="#000000"/>
  <rect x="170" y="310" width="10" height="10" fill="#000000"/>
  <rect x="240" y="310" width="10" height="10" fill="#000000"/>
  <rect x="250" y="310" width="10" height="10" fill="#000000"/>
  <rect x="380" y="310" width="10" height="10" fill="#000000"/>
  <rect x="390" y="310" width="10" height="10" fill="#000000"/>
  <rect x="460" y="310" width="10" height="10" fill="#000000"/>
  <rect x="470" y="310" width="10" height="10" fill="#000000"/>
  <rect x="500" y="310" width="10" height="10" fill="#000000"/>
  <rect x="510" y="310" width="10" height="10" fill="#000000"/>
  <rect x="140" y="320" width="10" height="10" fill="#000000"/>
  <rect x="150" y="320" width="10" height="10" fill="#000000"/>
  <rect x="160" y="320" width="10" height="10" fill="#000000"/>
  <rect x="170" y="320" width="10" height="10" fill="#000000"/>
  <rect x="180" y="320" width="10" height="10" fill="#000000"/>
  <rect x="190" y="320" width="10" height="10" fill="#000000"/>
  <rect x="300" y="320" width="10" height="10" fill="#000000"/>
  <rect x="310" y="320" width="10" height="10" fill="#000000"/>
  <rect x="440" y="320" width="10" height="10" fill="#000000"/>
  <rect x="450" y="320" width="10" height="10" fill="#000000"/>
  <rect x="460" y="320" width="10" height="10" fill="#000000"/>
  <rect x="470" y="320" width="10" height="10" fill="#000000"/>
  <rect x="480" y="320" width="10" height="10" fill="#000000"/>
  <rect x="490" y="320" width="10" height="10" fill="#000000"/>
  <rect x="140" y="330" width="10" height="10" fill="#000000"/>
  <rect x="150" y="330" width="10" height="10" fill="#000000"/>
  <rect x="160" y="330" width="10" height="10" fill="#000000"/>
  <rect x="170" y="330" width="10" height="10" fill="#000000"/>
  <rect x="180" y="330" width="10" height="10" fill="#000000"/>
  <rect x="190" y="330" width="10" height="10" fill="#000000"/>
  <rect x="300" y="330" width="10" height="10" fill="#000000"/>
  <rect x="310" y="330" width="10" height="10" fill="#000000"/>
  <rect x="440" y="330" width="10" height="10" fill="#000000"/>
  <rect x="450" y="330" width="10" height="10" fill="#000000"/>
  <rect x="460" y="330" width="10" height="10" fill="#000000"/>
  <rect x="470" y="330" width="10" height="10" fill="#000000"/>
  <rect x="480" y="330" width="10" height="10" fill="#000000"/>
  <rect x="490" y="330" width="10" height="10" fill="#000000"/>
  <rect x="140" y="340" width="10" height="10" fill="#000000"/>
  <rect x="150" y="340" width="10" height="10" fill="#000000"/>
  <rect x="320" y="340" width="10" height="10" fill="#000000"/>
  <rect x="330" y="340" width="10" height="10" fill="#000000"/>
  <rect x="480" y="340" width="10" height="10" fill="#000000"/>
  <rect x="490" y="340" width="10" height="10" fill="#000000"/>
  <rect x="140" y="350" width="10" height="10" fill="#000000"/>
  <rect x="150" y="350" width="10" height="10" fill="#000000"/>
  <rect x="320" y="350" width="10" height="10" fill="#000000"/>
  <rect x="330" y="350" width="10" height="10" fill="#000000"/>
  <rect x="480" y="350" width="10" height="10" fill="#000000"/>
  <rect x="490" y="350" width="10" height="10" fill="#000000"/>
  <rect x="140" y="360" width="10" height="10" fill="#000000"/>
  <rect x="150" y="360" width="10" height="10" fill="#000000"/>
  <rect x="300" y="360" width="10" height="10" fill="#000000"/>
  <rect x="310" y="360" width="10" height="10" fill="#000000"/>
  <rect x="480" y="360" width="10" height="10" fill="#000000"/>
  <rect x="490" y="360" width="10" height="10" fill="#000000"/>
  <rect x="140" y="370" width="10" height="10" fill="#000000"/>
  <rect x="150" y="370" width="10" height="10" fill="#000000"/>
  <rect x="300" y="370" width="10" height="10" fill="#000000"/>
  <rect x="310" y="370" width="10" height="10" fill="#000000"/>
  <rect x="480" y="370" width="10" height="10" fill="#000000"/>
  <rect x="490" y="370" width="10" height="10" fill="#000000"/>
  <rect x="140" y="380" width="10" height="10" fill="#000000"/>
  <rect x="150" y="380" width="10" height="10" fill="#000000"/>
  <rect x="320" y="380" width="10" height="10" fill="#000000"/>
  <rect x="330" y="380" width="10" height="10" fill="#000000"/>
  <rect x="480" y="380" width="10" height="10" fill="#000000"/>
  <rect x="490" y="380" width="10" height="10" fill="#000000"/>
  <rect x="140" y="390" width="10" height="10" fill="#000000"/>
  <rect x="150" y="390" width="10" height="10" fill="#000000"/>
  <rect x="320" y="390" width="10" height="10" fill="#000000"/>
  <rect x="330" y="390" width="10" height="10" fill="#000000"/>
  <rect x="480" y="390" width="10" height="10" fill="#000000"/>
  <rect x="490" y="390" width="10" height="10" fill="#000000"/>
  <rect x="140" y="400" width="10" height="10" fill="#000000"/>
  <rect x="150" y="400" width="10" height="10" fill="#000000"/>
  <rect x="320" y="400" width="10" height="10" fill="#000000"/>
  <rect x="330" y="400" width="10" height="10" fill="#000000"/>
  <rect x="480" y="400" width="10" height="10" fill="#000000"/>
  <rect x="490" y="400" width="10" height="10" fill="#000000"/>
  <rect x="140" y="410" width="10" height="10" fill="#000000"/>
  <rect x="150" y="410" width="10" height="10" fill="#000000"/>
  <rect x="320" y="410" width="10" height="10" fill="#000000"/>
  <rect x="330" y="410" width="10" height="10" fill="#000000"/>
  <rect x="480" y="410" width="10" height="10" fill="#000000"/>
  <rect x="490" y="410" width="10" height="10" fill="#000000"/>
  <rect x="140" y="420" width="10" height="10" fill="#000000"/>
  <rect x="150" y="420" width="10" height="10" fill="#000000"/>
  <rect x="300" y="420" width="10" height="10" fill="#000000"/>
  <rect x="310" y="420" width="10" height="10" fill="#000000"/>
  <rect x="480" y="420" width="10" height="10" fill="#000000"/>
  <rect x="490" y="420" width="10" height="10" fill="#000000"/>
  <rect x="140" y="430" width="10" height="10" fill="#000000"/>
  <rect x="150" y="430" width="10" height="10" fill="#000000"/>
  <rect x="300" y="430" width="10" height="10" fill="#000000"/>
  <rect x="310" y="430" width="10" height="10" fill="#000000"/>
  <rect x="480" y="430" width="10" height="10" fill="#000000"/>
  <rect x="490" y="430" width="10" height="10" fill="#000000"/>
  <rect x="160" y="440" width="10" height="10" fill="#000000"/>
  <rect x="170" y="440" width="10" height="10" fill="#000000"/>
  <rect x="300" y="440" width="10" height="10" fill="#000000"/>
  <rect x="310" y="440" width="10" height="10" fill="#000000"/>
  <rect x="460" y="440" width="10" height="10" fill="#000000"/>
  <rect x="470" y="440" width="10" height="10" fill="#000000"/>
  <rect x="160" y="450" width="10" height="10" fill="#000000"/>
  <rect x="170" y="450" width="10" height="10" fill="#000000"/>
  <rect x="300" y="450" width="10" height="10" fill="#000000"/>
  <rect x="310" y="450" width="10" height="10" fill="#000000"/>
  <rect x="460" y="450" width="10" height="10" fill="#000000"/>
  <rect x="470" y="450" width="10" height="10" fill="#000000"/>
  <rect x="160" y="460" width="10" height="10" fill="#000000"/>
  <rect x="170" y="460" width="10" height="10" fill="#000000"/>
  <rect x="300" y="460" width="10" height="10" fill="#000000"/>
  <rect x="310" y="460" width="10" height="10" fill="#000000"/>
  <rect x="460" y="460" width="10" height="10" fill="#000000"/>
  <rect x="470" y="460" width="10" height="10" fill="#000000"/>
  <rect x="160" y="470" width="10" height="10" fill="#000000"/>
  <rect x="170" y="470" width="10" height="10" fill="#000000"/>
  <rect x="300" y="470" width="10" height="10" fill="#000000"/>
  <rect x="310" y="470" width="10" height="10" fill="#000000"/>
  <rect x="460" y="470" width="10" height="10" fill="#000000"/>
  <rect x="470" y="470" width="10" height="10" fill="#000000"/>
  <rect x="180" y="480" width="10" height="10" fill="#000000"/>
  <rect x="190" y="480" width="10" height="10" fill="#000000"/>
  <rect x="320" y="480" width="10" height="10" fill="#000000"/>
  <rect x="330" y="480" width="10" height="10" fill="#000000"/>
  <rect x="440" y="480" width="10" height="10" fill="#000000"/>
  <rect x="450" y="480" width="10" height="10" fill="#000000"/>
  <rect x="180" y="490" width="10" height="10" fill="#000000"/>
  <rect x="190" y="490" width="10" height="10" fill="#000000"/>
  <rect x="320" y="490" width="10" height="10" fill="#000000"/>
  <rect x="330" y="490" width="10" height="10" fill="#000000"/>
  <rect x="440" y="490" width="10" height="10" fill="#000000"/>
  <rect x="450" y="490" width="10" height="10" fill="#000000"/>
  <rect x="200" y="500" width="10" height="10" fill="#000000"/>
  <rect x="210" y="500" width="10" height="10" fill="#000000"/>
  <rect x="420" y="500" width="10" height="10" fill="#000000"/>
  <rect x="430" y="500" width="10" height="10" fill="#000000"/>
  <rect x="200" y="510" width="10" height="10" fill="#000000"/>
  <rect x="210" y="510" width="10" height="10" fill="#000000"/>
  <rect x="420" y="510" width="10" height="10" fill="#000000"/>
  <rect x="430" y="510" width="10" height="10" fill="#000000"/>
  <rect x="220" y="520" width="10" height="10" fill="#000000"/>
  <rect x="230" y="520" width="10" height="10" fill="#000000"/>
  <rect x="240" y="520" width="10" height="10" fill="#000000"/>
  <rect x="250" y="520" width="10" height="10" fill="#000000"/>
  <rect x="380" y="520" width="10" height="10" fill="#000000"/>
  <rect x="390" y="520" width="10" height="10" fill="#000000"/>
  <rect x="400" y="520" width="10" height="10" fill="#000000"/>
  <rect x="410" y="520" width="10" height="10" fill="#000000"/>
  <rect x="220" y="530" width="10" height="10" fill="#000000"/>
  <rect x="230" y="530" width="10" height="10" fill="#000000"/>
  <rect x="240" y="530" width="10" height="10" fill="#000000"/>
  <rect x="250" y="530" width="10" height="10" fill="#000000"/>
  <rect x="380" y="530" width="10" height="10" fill="#000000"/>
  <rect x="390" y="530" width="10" height="10" fill="#000000"/>
  <rect x="400" y="530" width="10" height="10" fill="#000000"/>
  <rect x="410" y="530" width="10" height="10" fill="#000000"/>
  <rect x="260" y="540" width="10" height="10" fill="#000000"/>
  <rect x="270" y="540" width="10" height="10" fill="#000000"/>
  <rect x="280" y="540" width="10" height="10" fill="#000000"/>
  <rect x="290" y="540" width="10" height="10" fill="#000000"/>
  <rect x="300" y="540" width="10" height="10" fill="#000000"/>
  <rect x="310" y="540" width="10" height="10" fill="#000000"/>
  <rect x="320" y="540" width="10" height="10" fill="#000000"/>
  <rect x="330" y="540" width="10" height="10" fill="#000000"/>
  <rect x="340" y="540" width="10" height="10" fill="#000000"/>
  <rect x="350" y="540" width="10" height="10" fill="#000000"/>
  <rect x="360" y="540" width="10" height="10" fill="#000000"/>
  <rect x="370" y="540" width="10" height="10" fill="#000000"/>
  <rect x="260" y="550" width="10" height="10" fill="#000000"/>
  <rect x="270" y="550" width="10" height="10" fill="#000000"/>
  <rect x="280" y="550" width="10" height="10" fill="#000000"/>
  <rect x="290" y="550" width="10" height="10" fill="#000000"/>
  <rect x="300" y="550" width="10" height="10" fill="#000000"/>
  <rect x="310" y="550" width="10" height="10" fill="#000000"/>
  <rect x="320" y="550" width="10" height="10" fill="#000000"/>
  <rect x="330" y="550" width="10" height="10" fill="#000000"/>
  <rect x="340" y="550" width="10" height="10" fill="#000000"/>
  <rect x="350" y="550" width="10" height="10" fill="#000000"/>
  <rect x="360" y="550" width="10" height="10" fill="#000000"/>
  <rect x="370" y="550" width="10" height="10" fill="#000000"/>
</svg>